PathFileType	4	(X/Y/Z)	D:\Share\Shared_Data\Ergonomics\Sit To Stand Pertubation\S1\Unperturbed_NoHarness.trc
DataRate	CameraRate	NumFrames	NumMarkers	Units	OrigDataRate	OrigDataStartFrame	OrigNumFrames	
100	100	8	18	m	100	1991	241
Frame#	Time	R_Thigh_Med			R_ASIS			R_Pelvis			V_Sacral			L_Pelvis			L_ASIS			Clavical			R_Acromium			L_Acromium			Sternum			Torso			R_Thigh_Lat			R_Thigh			R_Shank_Med			R_Shank_Lat			R_Shank			R_Heel			R_Toe			
		X1	Y1	Z1	X2	Y2	Z2	X3	Y3	Z3	X4	Y4	Z4	X5	Y5	Z5	X6	Y6	Z6	X7	Y7	Z7	X8	Y8	Z8	X9	Y9	Z9	X10	Y10	Z10	X11	Y11	Z11	X12	Y12	Z12	X13	Y13	Z13	X14	Y14	Z14	X15	Y15	Z15	X16	Y16	Z16	X17	Y17	Z17	X18	Y18	Z18	

1991	19.9	0.40144284	0.39733264	0.0024085748	0.22675433	0.69452295	0.095686302	0.15357819	0.73861957	0.13054201	0.030947233	0.7222276	-0.0080370255	0.15486505	0.74028693	-0.14473166	0.24447295	0.70546051	-0.1033024	0.45248346	0.95169849	-0.0087874985	0.44192801	1.0526512	0.13733446	0.37737903	1.0438698	-0.20151535	0.44147894	0.975625	0.090232635	0.44886786	0.96459814	-0.063310638	0.4133721	0.41796579	0.12259757	0.33531207	0.57504883	0.081553009	0.32250659	0.090137276	0.06440773	0.29905771	0.098485741	0.14509258	0.3682952	0.29902155	0.14688428	0.2442614	0.031825464	0.092988762	0.44919034	0.051433834	0.12160117
1992	19.91	0.40208575	0.39728006	0.0025730574	0.22998447	0.69907019	0.095917961	0.1568591	0.74251752	0.13107347	0.034528069	0.72670184	-0.007847611	0.15812715	0.74439771	-0.14504935	0.24769128	0.7098761	-0.10317138	0.45332254	0.95868005	-0.0085627298	0.44196429	1.0593695	0.13762636	0.37782825	1.0499012	-0.201368	0.44250052	0.98240747	0.090567024	0.44978757	0.9714718	-0.063127541	0.41429428	0.41794809	0.12272794	0.33827283	0.57619019	0.081708725	0.32256259	0.090129562	0.064434502	0.29911316	0.098458954	0.14512585	0.3686239	0.29886642	0.14705138	0.24427498	0.031847805	0.09299427	0.44921552	0.051405033	0.12163357
1993	19.92	0.40269888	0.39723807	0.0027687335	0.23324663	0.70366931	0.096093742	0.16015002	0.74641986	0.13156082	0.038143009	0.73119037	-0.0076817665	0.16141028	0.74850812	-0.14545959	0.25092072	0.71432123	-0.10314429	0.45412015	0.96567847	-0.0083309755	0.44189554	1.0661636	0.13781714	0.37831174	1.055916	-0.20117075	0.44342612	0.98926007	0.090901657	0.45065787	0.97840216	-0.06293647	0.41515991	0.41792783	0.12289024	0.34115335	0.5773877	0.081899719	0.3226156	0.09012674	0.064472351	0.29915475	0.098431572	0.14516478	0.36890646	0.29871899	0.1472411	0.24428702	0.031867739	0.092999954	0.44923337	0.051377708	0.12166773
1994	19.93	0.40327905	0.39720932	0.0029913058	0.23654129	0.70832635	0.096222168	0.16345157	0.7503266	0.13199374	0.041792416	0.73569128	-0.0075649586	0.16471776	0.75261804	-0.14595256	0.2541748	0.71879797	-0.10319342	0.4548851	0.97270605	-0.0080968657	0.44172348	1.0730217	0.13789442	0.37883908	1.0619117	-0.20095406	0.44426181	0.99617535	0.091231979	0.45148978	0.9853808	-0.062742828	0.41596753	0.4179101	0.12307865	0.34396982	0.57860187	0.082077446	0.32266544	0.090129562	0.064520355	0.29918463	0.098405045	0.14520988	0.36914465	0.29858267	0.14744849	0.24429799	0.031886827	0.093006081	0.44924442	0.051350971	0.12170318
1995	19.94	0.40382288	0.39719711	0.0032351379	0.23986888	0.71302722	0.096308228	0.16676343	0.75424103	0.13236615	0.045473526	0.74020703	-0.0075216756	0.16805252	0.75672778	-0.14649771	0.25746259	0.72330591	-0.10329442	0.45562512	0.97977087	-0.0078645291	0.4414545	1.0799298	0.13786319	0.37940814	1.0679069	-0.20078183	0.44501892	1.0031439	0.091554588	0.45229224	0.99239978	-0.062550873	0.41671741	0.41789978	0.12328608	0.34674545	0.57980341	0.082219002	0.32271243	0.090138229	0.064577171	0.29920438	0.098380577	0.14526082	0.36934174	0.29846024	0.14766852	0.24430855	0.031906809	0.093012909	0.4492496	0.051323887	0.12173887
1996	19.95	0.40432739	0.3972048	0.0034929812	0.24323007	0.71774329	0.096354713	0.17008502	0.75816815	0.13267807	0.049181694	0.74474133	-0.0075662737	0.1714157	0.76083807	-0.14705249	0.26078754	0.72784052	-0.10342291	0.45634665	0.98687561	-0.0076376634	0.44110294	1.0868719	0.1377597	0.37999734	1.0739448	-0.20074132	0.44571017	1.0101542	0.091867035	0.45307153	0.99945081	-0.062363419	0.41741113	0.41790103	0.12350572	0.34950369	0.58098163	0.082328842	0.32275729	0.090152565	0.0646409	0.29921533	0.098359329	0.14531648	0.36950214	0.29835455	0.14789673	0.24431937	0.031929079	0.093020134	0.4492515	0.051296036	0.12177378
1997	19.96	0.40478931	0.39723505	0.0037558191	0.24662494	0.7224469	0.0963657	0.17341669	0.76211133	0.13293748	0.052911976	0.74929199	-0.0077003903	0.17480766	0.76494995	-0.14758401	0.26414908	0.73239697	-0.10355747	0.45705435	0.99401721	-0.0074195032	0.44069217	1.093834	0.13765796	0.38056638	1.0800857	-0.20089285	0.44634601	1.0171926	0.092167061	0.45382993	1.0065245	-0.062182461	0.41805069	0.41791699	0.12373197	0.35227014	0.58213715	0.082429504	0.3228017	0.090172325	0.064709206	0.29921863	0.098342705	0.14537506	0.36962955	0.29826923	0.1481291	0.24433141	0.031954781	0.093026749	0.44925397	0.05126741	0.12180752
1998	19.97	0.40520462	0.3972894	0.0040142937	0.25005225	0.72712152	0.096347931	0.17675974	0.76606958	0.13315489	0.056660709	0.75385046	-0.0079175353	0.17822856	0.76906403	-0.14807921	0.26754504	0.73697131	-0.10368337	0.45775082	1.0011872	-0.0072127886	0.44024847	1.1008019	0.1376429	0.38106885	1.0863838	-0.20123505	0.44693622	1.0242437	0.092452301	0.45456531	1.0136107	-0.062010208	0.41863736	0.41794965	0.12396102	0.35506494	0.58326807	0.082548981	0.32284796	0.090197296	0.064779282	0.29921548	0.098331947	0.14543481	0.36972592	0.29820746	0.14836212	0.24434586	0.031985399	0.093031227	0.44926062	0.051237495	0.1218405
